<?xml version="1.0" encoding="UTF-8"?>
<svg xmlns="http://www.w3.org/2000/svg" xmlns:xlink="http://www.w3.org/1999/xlink" width="px" height="px" viewBox="0 0 185 55" version="1.1">
<g id="surface1">
<path style=" stroke:none;fill-rule:nonzero;fill:rgb(10.980392%,13.725491%,34.901962%);fill-opacity:1;" d="M 7.976562 0 L 177.023438 0 C 181.429688 0 185 3.582031 185 8 L 185 47 C 185 51.417969 181.429688 55 177.023438 55 L 7.976562 55 C 3.570312 55 0 51.417969 0 47 L 0 8 C 0 3.582031 3.570312 0 7.976562 0 Z M 7.976562 0 "/>
<path style=" stroke:none;fill-rule:nonzero;fill:rgb(100%,100%,100%);fill-opacity:1;" d="M 37.28125 28.453125 C 37.296875 27.304688 37.605469 26.175781 38.1875 25.175781 C 38.765625 24.175781 39.59375 23.335938 40.597656 22.734375 C 39.960938 21.84375 39.121094 21.113281 38.148438 20.597656 C 37.171875 20.082031 36.085938 19.796875 34.980469 19.761719 C 32.617188 19.519531 30.324219 21.144531 29.121094 21.144531 C 27.894531 21.144531 26.039062 19.785156 24.042969 19.824219 C 22.75 19.867188 21.492188 20.234375 20.390625 20.890625 C 19.285156 21.550781 18.375 22.476562 17.746094 23.582031 C 15.027344 28.195312 17.054688 34.976562 19.664062 38.703125 C 20.96875 40.53125 22.492188 42.570312 24.488281 42.496094 C 26.4375 42.417969 27.167969 41.28125 29.523438 41.28125 C 31.859375 41.28125 32.542969 42.496094 34.578125 42.453125 C 36.671875 42.417969 37.992188 40.617188 39.25 38.773438 C 40.1875 37.472656 40.910156 36.035156 41.386719 34.515625 C 40.171875 34.011719 39.132812 33.167969 38.402344 32.089844 C 37.671875 31.011719 37.28125 29.746094 37.28125 28.453125 Z M 37.28125 28.453125 "/>
<path style=" stroke:none;fill-rule:nonzero;fill:rgb(100%,100%,100%);fill-opacity:1;" d="M 33.4375 17.308594 C 34.578125 15.96875 35.140625 14.242188 35.003906 12.5 C 33.257812 12.679688 31.648438 13.496094 30.488281 14.785156 C 29.925781 15.417969 29.492188 16.152344 29.214844 16.945312 C 28.9375 17.738281 28.824219 18.578125 28.878906 19.417969 C 29.753906 19.425781 30.617188 19.242188 31.40625 18.875 C 32.195312 18.511719 32.890625 17.976562 33.4375 17.308594 Z M 33.4375 17.308594 "/>
<path style=" stroke:none;fill-rule:nonzero;fill:rgb(100%,100%,100%);fill-opacity:1;" d="M 56.160156 22.25 L 54.144531 22.25 L 54.144531 15.703125 L 56.25 15.703125 C 56.882812 15.703125 57.425781 15.835938 57.875 16.097656 C 58.324219 16.359375 58.671875 16.730469 58.910156 17.21875 C 59.152344 17.707031 59.273438 18.285156 59.273438 18.964844 C 59.273438 19.644531 59.152344 20.234375 58.910156 20.726562 C 58.664062 21.214844 58.3125 21.59375 57.851562 21.855469 C 57.386719 22.117188 56.824219 22.25 56.160156 22.25 Z M 54.9375 21.546875 L 56.109375 21.546875 C 56.648438 21.546875 57.097656 21.441406 57.453125 21.234375 C 57.804688 21.023438 58.070312 20.726562 58.246094 20.34375 C 58.417969 19.957031 58.507812 19.496094 58.507812 18.964844 C 58.507812 18.4375 58.421875 17.980469 58.25 17.601562 C 58.078125 17.214844 57.820312 16.921875 57.476562 16.71875 C 57.136719 16.511719 56.707031 16.40625 56.199219 16.40625 L 54.9375 16.40625 Z M 62.664062 22.351562 C 62.222656 22.351562 61.835938 22.246094 61.5 22.035156 C 61.167969 21.824219 60.910156 21.53125 60.722656 21.152344 C 60.539062 20.769531 60.445312 20.328125 60.445312 19.820312 C 60.445312 19.308594 60.539062 18.863281 60.722656 18.480469 C 60.910156 18.101562 61.167969 17.804688 61.5 17.59375 C 61.835938 17.382812 62.222656 17.277344 62.664062 17.277344 C 63.105469 17.277344 63.492188 17.382812 63.824219 17.59375 C 64.15625 17.804688 64.417969 18.101562 64.601562 18.480469 C 64.789062 18.863281 64.882812 19.308594 64.882812 19.820312 C 64.882812 20.328125 64.789062 20.769531 64.601562 21.152344 C 64.417969 21.53125 64.15625 21.824219 63.824219 22.035156 C 63.492188 22.246094 63.105469 22.351562 62.664062 22.351562 Z M 62.664062 21.675781 C 63 21.675781 63.277344 21.589844 63.492188 21.414062 C 63.710938 21.242188 63.871094 21.015625 63.972656 20.734375 C 64.078125 20.453125 64.128906 20.148438 64.128906 19.820312 C 64.128906 19.492188 64.078125 19.1875 63.972656 18.902344 C 63.871094 18.621094 63.710938 18.390625 63.492188 18.214844 C 63.277344 18.042969 63 17.953125 62.664062 17.953125 C 62.328125 17.953125 62.050781 18.042969 61.835938 18.214844 C 61.617188 18.390625 61.457031 18.621094 61.355469 18.902344 C 61.25 19.1875 61.199219 19.492188 61.199219 19.820312 C 61.199219 20.148438 61.25 20.453125 61.355469 20.734375 C 61.457031 21.015625 61.617188 21.242188 61.835938 21.414062 C 62.050781 21.589844 62.328125 21.675781 62.664062 21.675781 Z M 67.152344 22.25 L 65.660156 17.339844 L 66.453125 17.339844 L 67.511719 21.097656 L 67.5625 21.097656 L 68.605469 17.339844 L 69.410156 17.339844 L 70.441406 21.085938 L 70.492188 21.085938 L 71.550781 17.339844 L 72.34375 17.339844 L 70.851562 22.25 L 70.109375 22.25 L 69.039062 18.480469 L 68.964844 18.480469 L 67.890625 22.25 Z M 74.269531 19.296875 L 74.269531 22.25 L 73.515625 22.25 L 73.515625 17.339844 L 74.242188 17.339844 L 74.242188 18.109375 L 74.308594 18.109375 C 74.421875 17.859375 74.59375 17.660156 74.828125 17.507812 C 75.0625 17.355469 75.363281 17.277344 75.734375 17.277344 C 76.066406 17.277344 76.355469 17.34375 76.605469 17.480469 C 76.851562 17.617188 77.046875 17.820312 77.183594 18.09375 C 77.324219 18.367188 77.390625 18.714844 77.390625 19.128906 L 77.390625 22.25 L 76.640625 22.25 L 76.640625 19.183594 C 76.640625 18.796875 76.539062 18.496094 76.339844 18.28125 C 76.140625 18.0625 75.867188 17.953125 75.519531 17.953125 C 75.277344 17.953125 75.0625 18.007812 74.875 18.109375 C 74.6875 18.214844 74.539062 18.367188 74.429688 18.566406 C 74.324219 18.769531 74.269531 19.011719 74.269531 19.296875 Z M 79.699219 15.703125 L 79.699219 22.25 L 78.945312 22.25 L 78.945312 15.703125 Z M 83.246094 22.351562 C 82.800781 22.351562 82.414062 22.246094 82.082031 22.035156 C 81.75 21.824219 81.492188 21.53125 81.304688 21.152344 C 81.117188 20.769531 81.027344 20.328125 81.027344 19.820312 C 81.027344 19.308594 81.117188 18.863281 81.304688 18.480469 C 81.492188 18.101562 81.75 17.804688 82.082031 17.59375 C 82.414062 17.382812 82.800781 17.277344 83.246094 17.277344 C 83.6875 17.277344 84.074219 17.382812 84.40625 17.59375 C 84.738281 17.804688 84.996094 18.101562 85.183594 18.480469 C 85.371094 18.863281 85.464844 19.308594 85.464844 19.820312 C 85.464844 20.328125 85.371094 20.769531 85.183594 21.152344 C 84.996094 21.53125 84.738281 21.824219 84.40625 22.035156 C 84.074219 22.246094 83.6875 22.351562 83.246094 22.351562 Z M 83.246094 21.675781 C 83.582031 21.675781 83.855469 21.589844 84.074219 21.414062 C 84.289062 21.242188 84.449219 21.015625 84.554688 20.734375 C 84.660156 20.453125 84.710938 20.148438 84.710938 19.820312 C 84.710938 19.492188 84.660156 19.1875 84.554688 18.902344 C 84.449219 18.621094 84.289062 18.390625 84.074219 18.214844 C 83.855469 18.042969 83.582031 17.953125 83.246094 17.953125 C 82.910156 17.953125 82.632812 18.042969 82.414062 18.214844 C 82.199219 18.390625 82.039062 18.621094 81.933594 18.902344 C 81.832031 19.1875 81.777344 19.492188 81.777344 19.820312 C 81.777344 20.148438 81.832031 20.453125 81.933594 20.734375 C 82.039062 21.015625 82.199219 21.242188 82.414062 21.414062 C 82.632812 21.589844 82.910156 21.675781 83.246094 21.675781 Z M 88.230469 22.363281 C 87.921875 22.363281 87.640625 22.304688 87.386719 22.1875 C 87.132812 22.070312 86.933594 21.898438 86.785156 21.675781 C 86.636719 21.449219 86.5625 21.175781 86.5625 20.855469 C 86.5625 20.574219 86.617188 20.347656 86.726562 20.171875 C 86.835938 19.996094 86.984375 19.855469 87.167969 19.757812 C 87.355469 19.65625 87.558594 19.582031 87.78125 19.535156 C 88.007812 19.480469 88.234375 19.441406 88.460938 19.410156 C 88.757812 19.375 89 19.34375 89.183594 19.324219 C 89.371094 19.304688 89.507812 19.269531 89.59375 19.21875 C 89.679688 19.171875 89.722656 19.085938 89.722656 18.964844 L 89.722656 18.9375 C 89.722656 18.625 89.636719 18.378906 89.464844 18.203125 C 89.292969 18.027344 89.035156 17.941406 88.691406 17.941406 C 88.332031 17.941406 88.050781 18.019531 87.84375 18.179688 C 87.640625 18.335938 87.496094 18.503906 87.414062 18.683594 L 86.703125 18.425781 C 86.828125 18.128906 87 17.898438 87.210938 17.730469 C 87.425781 17.5625 87.660156 17.445312 87.914062 17.378906 C 88.167969 17.3125 88.417969 17.277344 88.664062 17.277344 C 88.820312 17.277344 89.003906 17.296875 89.207031 17.335938 C 89.414062 17.371094 89.609375 17.445312 89.804688 17.5625 C 89.996094 17.675781 90.15625 17.851562 90.285156 18.082031 C 90.410156 18.316406 90.476562 18.625 90.476562 19.015625 L 90.476562 22.25 L 89.722656 22.25 L 89.722656 21.585938 L 89.683594 21.585938 C 89.632812 21.691406 89.550781 21.804688 89.429688 21.925781 C 89.3125 22.046875 89.152344 22.152344 88.957031 22.238281 C 88.757812 22.324219 88.515625 22.363281 88.230469 22.363281 Z M 88.347656 21.6875 C 88.644531 21.6875 88.894531 21.628906 89.097656 21.511719 C 89.304688 21.394531 89.460938 21.242188 89.5625 21.058594 C 89.671875 20.871094 89.722656 20.675781 89.722656 20.472656 L 89.722656 19.78125 C 89.691406 19.820312 89.621094 19.855469 89.511719 19.886719 C 89.40625 19.917969 89.28125 19.945312 89.144531 19.96875 C 89.003906 19.988281 88.871094 20.007812 88.738281 20.027344 C 88.609375 20.039062 88.503906 20.054688 88.421875 20.0625 C 88.226562 20.089844 88.042969 20.132812 87.875 20.1875 C 87.707031 20.242188 87.570312 20.328125 87.464844 20.441406 C 87.363281 20.550781 87.3125 20.703125 87.3125 20.894531 C 87.3125 21.15625 87.410156 21.355469 87.601562 21.488281 C 87.796875 21.621094 88.046875 21.6875 88.347656 21.6875 Z M 93.875 22.351562 C 93.46875 22.351562 93.109375 22.25 92.796875 22.042969 C 92.484375 21.832031 92.238281 21.539062 92.0625 21.160156 C 91.886719 20.777344 91.796875 20.328125 91.796875 19.808594 C 91.796875 19.292969 91.886719 18.84375 92.0625 18.464844 C 92.238281 18.085938 92.484375 17.792969 92.800781 17.585938 C 93.113281 17.378906 93.476562 17.277344 93.890625 17.277344 C 94.207031 17.277344 94.460938 17.332031 94.644531 17.4375 C 94.832031 17.542969 94.972656 17.660156 95.070312 17.792969 C 95.171875 17.925781 95.25 18.035156 95.304688 18.121094 L 95.367188 18.121094 L 95.367188 15.703125 L 96.121094 15.703125 L 96.121094 22.25 L 95.394531 22.25 L 95.394531 21.496094 L 95.304688 21.496094 C 95.25 21.585938 95.171875 21.699219 95.070312 21.835938 C 94.964844 21.96875 94.820312 22.089844 94.632812 22.195312 C 94.441406 22.300781 94.191406 22.351562 93.875 22.351562 Z M 93.976562 21.675781 C 94.28125 21.675781 94.535156 21.597656 94.742188 21.4375 C 94.953125 21.277344 95.109375 21.058594 95.21875 20.777344 C 95.328125 20.492188 95.378906 20.167969 95.378906 19.796875 C 95.378906 19.429688 95.328125 19.109375 95.222656 18.832031 C 95.117188 18.554688 94.957031 18.339844 94.75 18.1875 C 94.542969 18.03125 94.285156 17.953125 93.976562 17.953125 C 93.660156 17.953125 93.394531 18.035156 93.183594 18.199219 C 92.972656 18.363281 92.8125 18.582031 92.707031 18.863281 C 92.601562 19.140625 92.550781 19.449219 92.550781 19.796875 C 92.550781 20.144531 92.605469 20.460938 92.710938 20.746094 C 92.816406 21.03125 92.976562 21.257812 93.1875 21.425781 C 93.402344 21.589844 93.664062 21.675781 93.976562 21.675781 Z M 102.476562 22.351562 C 102.03125 22.351562 101.644531 22.246094 101.3125 22.035156 C 100.980469 21.824219 100.722656 21.53125 100.535156 21.152344 C 100.347656 20.769531 100.257812 20.328125 100.257812 19.820312 C 100.257812 19.308594 100.347656 18.863281 100.535156 18.480469 C 100.722656 18.101562 100.980469 17.804688 101.3125 17.59375 C 101.644531 17.382812 102.03125 17.277344 102.476562 17.277344 C 102.917969 17.277344 103.304688 17.382812 103.636719 17.59375 C 103.96875 17.804688 104.226562 18.101562 104.414062 18.480469 C 104.601562 18.863281 104.695312 19.308594 104.695312 19.820312 C 104.695312 20.328125 104.601562 20.769531 104.414062 21.152344 C 104.226562 21.53125 103.96875 21.824219 103.636719 22.035156 C 103.304688 22.246094 102.917969 22.351562 102.476562 22.351562 Z M 102.476562 21.675781 C 102.8125 21.675781 103.085938 21.589844 103.304688 21.414062 C 103.519531 21.242188 103.679688 21.015625 103.785156 20.734375 C 103.890625 20.453125 103.941406 20.148438 103.941406 19.820312 C 103.941406 19.492188 103.890625 19.1875 103.785156 18.902344 C 103.679688 18.621094 103.519531 18.390625 103.304688 18.214844 C 103.085938 18.042969 102.8125 17.953125 102.476562 17.953125 C 102.140625 17.953125 101.863281 18.042969 101.644531 18.214844 C 101.429688 18.390625 101.269531 18.621094 101.164062 18.902344 C 101.0625 19.1875 101.007812 19.492188 101.007812 19.820312 C 101.007812 20.148438 101.0625 20.453125 101.164062 20.734375 C 101.269531 21.015625 101.429688 21.242188 101.644531 21.414062 C 101.863281 21.589844 102.140625 21.675781 102.476562 21.675781 Z M 106.773438 19.296875 L 106.773438 22.25 L 106.019531 22.25 L 106.019531 17.339844 L 106.746094 17.339844 L 106.746094 18.109375 L 106.8125 18.109375 C 106.925781 17.859375 107.101562 17.660156 107.335938 17.507812 C 107.566406 17.355469 107.871094 17.277344 108.238281 17.277344 C 108.570312 17.277344 108.859375 17.34375 109.109375 17.480469 C 109.359375 17.617188 109.550781 17.820312 109.691406 18.09375 C 109.828125 18.367188 109.898438 18.714844 109.898438 19.128906 L 109.898438 22.25 L 109.144531 22.25 L 109.144531 19.183594 C 109.144531 18.796875 109.042969 18.496094 108.84375 18.28125 C 108.644531 18.0625 108.371094 17.953125 108.023438 17.953125 C 107.78125 17.953125 107.566406 18.007812 107.378906 18.109375 C 107.191406 18.214844 107.042969 18.367188 106.9375 18.566406 C 106.828125 18.769531 106.773438 19.011719 106.773438 19.296875 Z M 116.285156 17.339844 L 116.285156 17.980469 L 113.746094 17.980469 L 113.746094 17.339844 Z M 114.488281 16.164062 L 115.238281 16.164062 L 115.238281 20.84375 C 115.238281 21.058594 115.269531 21.214844 115.332031 21.324219 C 115.394531 21.425781 115.476562 21.496094 115.574219 21.535156 C 115.671875 21.566406 115.777344 21.585938 115.890625 21.585938 C 115.972656 21.585938 116.039062 21.582031 116.09375 21.574219 C 116.144531 21.5625 116.1875 21.554688 116.21875 21.546875 L 116.375 22.222656 C 116.324219 22.242188 116.25 22.261719 116.160156 22.28125 C 116.070312 22.304688 115.953125 22.3125 115.8125 22.3125 C 115.601562 22.3125 115.390625 22.269531 115.1875 22.175781 C 114.984375 22.085938 114.816406 21.945312 114.683594 21.757812 C 114.550781 21.570312 114.488281 21.332031 114.488281 21.046875 Z M 118.453125 19.296875 L 118.453125 22.25 L 117.699219 22.25 L 117.699219 15.703125 L 118.453125 15.703125 L 118.453125 18.109375 L 118.515625 18.109375 C 118.632812 17.855469 118.804688 17.652344 119.03125 17.503906 C 119.265625 17.351562 119.574219 17.277344 119.957031 17.277344 C 120.289062 17.277344 120.582031 17.34375 120.832031 17.476562 C 121.085938 17.609375 121.277344 17.8125 121.417969 18.089844 C 121.558594 18.363281 121.628906 18.707031 121.628906 19.128906 L 121.628906 22.25 L 120.875 22.25 L 120.875 19.183594 C 120.875 18.792969 120.773438 18.492188 120.570312 18.277344 C 120.371094 18.0625 120.09375 17.953125 119.742188 17.953125 C 119.492188 17.953125 119.273438 18.007812 119.078125 18.109375 C 118.882812 18.214844 118.730469 18.367188 118.617188 18.566406 C 118.507812 18.769531 118.453125 19.011719 118.453125 19.296875 Z M 125.234375 22.351562 C 124.765625 22.351562 124.355469 22.246094 124.015625 22.039062 C 123.675781 21.828125 123.414062 21.535156 123.226562 21.15625 C 123.046875 20.777344 122.953125 20.335938 122.953125 19.832031 C 122.953125 19.332031 123.046875 18.886719 123.226562 18.503906 C 123.414062 18.117188 123.667969 17.816406 124 17.601562 C 124.332031 17.386719 124.71875 17.277344 125.160156 17.277344 C 125.414062 17.277344 125.664062 17.320312 125.914062 17.40625 C 126.164062 17.488281 126.390625 17.628906 126.59375 17.820312 C 126.796875 18.011719 126.960938 18.261719 127.082031 18.574219 C 127.203125 18.886719 127.261719 19.273438 127.261719 19.730469 L 127.261719 20.050781 L 123.488281 20.050781 L 123.488281 19.398438 L 126.5 19.398438 C 126.5 19.121094 126.441406 18.875 126.332031 18.65625 C 126.222656 18.441406 126.070312 18.269531 125.867188 18.144531 C 125.667969 18.015625 125.429688 17.953125 125.160156 17.953125 C 124.859375 17.953125 124.601562 18.027344 124.382812 18.179688 C 124.164062 18.324219 123.996094 18.515625 123.882812 18.753906 C 123.765625 18.988281 123.707031 19.242188 123.707031 19.515625 L 123.707031 19.949219 C 123.707031 20.320312 123.769531 20.632812 123.898438 20.890625 C 124.027344 21.148438 124.207031 21.34375 124.4375 21.476562 C 124.664062 21.609375 124.933594 21.675781 125.234375 21.675781 C 125.433594 21.675781 125.613281 21.648438 125.769531 21.589844 C 125.933594 21.535156 126.070312 21.449219 126.1875 21.335938 C 126.304688 21.222656 126.394531 21.078125 126.460938 20.90625 L 127.1875 21.113281 C 127.109375 21.359375 126.980469 21.578125 126.800781 21.765625 C 126.621094 21.949219 126.398438 22.09375 126.132812 22.199219 C 125.867188 22.300781 125.566406 22.351562 125.234375 22.351562 Z M 125.234375 22.351562 "/>
<path style=" stroke:none;fill-rule:nonzero;fill:rgb(100%,100%,100%);fill-opacity:1;" d="M 53.488281 39.25 L 56.5625 30.308594 L 58.667969 30.308594 L 61.746094 39.25 L 59.972656 39.25 L 59.339844 37.328125 L 55.894531 37.328125 L 55.246094 39.25 Z M 56.359375 35.890625 L 58.871094 35.890625 L 57.390625 31.4375 L 57.84375 31.4375 Z M 62.84375 41.648438 L 62.84375 32.722656 L 64.316406 32.722656 L 64.316406 34.019531 L 64.171875 33.695312 C 64.398438 33.34375 64.699219 33.070312 65.082031 32.878906 C 65.464844 32.679688 65.910156 32.578125 66.410156 32.578125 C 67.027344 32.578125 67.582031 32.730469 68.074219 33.035156 C 68.570312 33.339844 68.960938 33.746094 69.246094 34.257812 C 69.542969 34.769531 69.691406 35.347656 69.691406 35.984375 C 69.691406 36.617188 69.546875 37.195312 69.261719 37.714844 C 68.972656 38.234375 68.582031 38.644531 68.085938 38.949219 C 67.59375 39.246094 67.03125 39.394531 66.398438 39.394531 C 65.929688 39.394531 65.492188 39.300781 65.09375 39.117188 C 64.703125 38.925781 64.394531 38.652344 64.160156 38.300781 L 64.414062 37.988281 L 64.414062 41.648438 Z M 66.21875 37.953125 C 66.578125 37.953125 66.898438 37.871094 67.175781 37.703125 C 67.457031 37.535156 67.671875 37.300781 67.824219 37.007812 C 67.984375 36.710938 68.0625 36.371094 68.0625 35.984375 C 68.0625 35.601562 67.984375 35.265625 67.824219 34.976562 C 67.671875 34.683594 67.457031 34.449219 67.175781 34.28125 C 66.898438 34.105469 66.578125 34.019531 66.21875 34.019531 C 65.878906 34.019531 65.566406 34.101562 65.285156 34.269531 C 65.015625 34.4375 64.800781 34.675781 64.640625 34.976562 C 64.488281 35.273438 64.414062 35.609375 64.414062 35.984375 C 64.414062 36.371094 64.488281 36.710938 64.640625 37.007812 C 64.800781 37.300781 65.015625 37.535156 65.285156 37.703125 C 65.566406 37.871094 65.878906 37.953125 66.21875 37.953125 Z M 71.125 41.648438 L 71.125 32.722656 L 72.597656 32.722656 L 72.597656 34.019531 L 72.453125 33.695312 C 72.675781 33.34375 72.980469 33.070312 73.363281 32.878906 C 73.746094 32.679688 74.1875 32.578125 74.691406 32.578125 C 75.304688 32.578125 75.859375 32.730469 76.355469 33.035156 C 76.851562 33.339844 77.242188 33.746094 77.527344 34.257812 C 77.824219 34.769531 77.972656 35.347656 77.972656 35.984375 C 77.972656 36.617188 77.828125 37.195312 77.539062 37.714844 C 77.253906 38.234375 76.863281 38.644531 76.367188 38.949219 C 75.871094 39.246094 75.308594 39.394531 74.679688 39.394531 C 74.207031 39.394531 73.773438 39.300781 73.375 39.117188 C 72.984375 38.925781 72.671875 38.652344 72.441406 38.300781 L 72.691406 37.988281 L 72.691406 41.648438 Z M 74.5 37.953125 C 74.859375 37.953125 75.179688 37.871094 75.457031 37.703125 C 75.738281 37.535156 75.953125 37.300781 76.105469 37.007812 C 76.261719 36.710938 76.34375 36.371094 76.34375 35.984375 C 76.34375 35.601562 76.261719 35.265625 76.105469 34.976562 C 75.953125 34.683594 75.738281 34.449219 75.457031 34.28125 C 75.179688 34.105469 74.859375 34.019531 74.5 34.019531 C 74.15625 34.019531 73.847656 34.101562 73.566406 34.269531 C 73.296875 34.4375 73.078125 34.675781 72.921875 34.976562 C 72.769531 35.273438 72.691406 35.609375 72.691406 35.984375 C 72.691406 36.371094 72.769531 36.710938 72.921875 37.007812 C 73.078125 37.300781 73.296875 37.535156 73.566406 37.703125 C 73.847656 37.871094 74.15625 37.953125 74.5 37.953125 Z M 85.085938 39.394531 C 84.519531 39.394531 83.992188 39.289062 83.507812 39.082031 C 83.027344 38.875 82.613281 38.585938 82.261719 38.21875 C 81.917969 37.84375 81.667969 37.40625 81.507812 36.910156 L 82.859375 36.320312 C 83.078125 36.835938 83.386719 37.238281 83.792969 37.535156 C 84.203125 37.820312 84.660156 37.964844 85.171875 37.964844 C 85.457031 37.964844 85.707031 37.921875 85.914062 37.835938 C 86.128906 37.738281 86.292969 37.609375 86.402344 37.449219 C 86.523438 37.289062 86.582031 37.097656 86.582031 36.875 C 86.582031 36.609375 86.503906 36.394531 86.34375 36.226562 C 86.191406 36.050781 85.960938 35.914062 85.648438 35.816406 L 83.9375 35.265625 C 83.242188 35.050781 82.722656 34.726562 82.371094 34.292969 C 82.019531 33.863281 81.84375 33.355469 81.84375 32.769531 C 81.84375 32.257812 81.96875 31.804688 82.214844 31.414062 C 82.46875 31.023438 82.820312 30.71875 83.269531 30.503906 C 83.722656 30.277344 84.242188 30.164062 84.824219 30.164062 C 85.359375 30.164062 85.847656 30.261719 86.296875 30.453125 C 86.742188 30.636719 87.125 30.898438 87.445312 31.234375 C 87.773438 31.5625 88.015625 31.949219 88.175781 32.398438 L 86.835938 32.996094 C 86.660156 32.550781 86.394531 32.207031 86.042969 31.964844 C 85.695312 31.71875 85.285156 31.59375 84.824219 31.59375 C 84.550781 31.59375 84.3125 31.640625 84.105469 31.738281 C 83.898438 31.824219 83.734375 31.953125 83.613281 32.121094 C 83.503906 32.28125 83.449219 32.472656 83.449219 32.699219 C 83.449219 32.945312 83.527344 33.164062 83.6875 33.359375 C 83.847656 33.542969 84.089844 33.6875 84.417969 33.789062 L 86.054688 34.304688 C 86.765625 34.539062 87.296875 34.859375 87.648438 35.265625 C 88.007812 35.675781 88.1875 36.179688 88.1875 36.777344 C 88.1875 37.289062 88.054688 37.742188 87.792969 38.132812 C 87.527344 38.527344 87.164062 38.835938 86.703125 39.058594 C 86.238281 39.28125 85.703125 39.394531 85.085938 39.394531 Z M 92.726562 39.320312 C 91.992188 39.320312 91.421875 39.121094 91.015625 38.722656 C 90.617188 38.3125 90.417969 37.742188 90.417969 37.007812 L 90.417969 34.125 L 89.292969 34.125 L 89.292969 32.722656 L 89.414062 32.722656 C 89.730469 32.722656 89.980469 32.636719 90.15625 32.46875 C 90.332031 32.300781 90.417969 32.058594 90.417969 31.738281 L 90.417969 31.234375 L 91.984375 31.234375 L 91.984375 32.722656 L 93.480469 32.722656 L 93.480469 34.125 L 91.984375 34.125 L 91.984375 36.921875 C 91.984375 37.136719 92.023438 37.320312 92.09375 37.472656 C 92.171875 37.625 92.292969 37.742188 92.453125 37.820312 C 92.621094 37.902344 92.832031 37.941406 93.085938 37.941406 C 93.144531 37.941406 93.207031 37.9375 93.277344 37.929688 C 93.359375 37.921875 93.433594 37.914062 93.503906 37.90625 L 93.503906 39.25 C 93.394531 39.265625 93.265625 39.28125 93.121094 39.296875 C 92.980469 39.3125 92.847656 39.320312 92.726562 39.320312 Z M 98.066406 39.394531 C 97.429688 39.394531 96.847656 39.246094 96.320312 38.949219 C 95.800781 38.652344 95.386719 38.25 95.074219 37.738281 C 94.773438 37.226562 94.621094 36.640625 94.621094 35.984375 C 94.621094 35.328125 94.773438 34.746094 95.074219 34.234375 C 95.386719 33.722656 95.800781 33.316406 96.320312 33.023438 C 96.839844 32.726562 97.421875 32.578125 98.066406 32.578125 C 98.707031 32.578125 99.285156 32.726562 99.804688 33.023438 C 100.320312 33.316406 100.730469 33.722656 101.035156 34.234375 C 101.347656 34.738281 101.503906 35.320312 101.503906 35.984375 C 101.503906 36.640625 101.347656 37.226562 101.035156 37.738281 C 100.722656 38.25 100.308594 38.652344 99.789062 38.949219 C 99.273438 39.246094 98.699219 39.394531 98.066406 39.394531 Z M 98.066406 37.953125 C 98.417969 37.953125 98.726562 37.871094 98.988281 37.703125 C 99.261719 37.535156 99.472656 37.300781 99.625 37.007812 C 99.78125 36.703125 99.863281 36.363281 99.863281 35.984375 C 99.863281 35.601562 99.78125 35.265625 99.625 34.976562 C 99.472656 34.683594 99.261719 34.449219 98.988281 34.28125 C 98.726562 34.105469 98.417969 34.019531 98.066406 34.019531 C 97.707031 34.019531 97.394531 34.105469 97.121094 34.28125 C 96.851562 34.449219 96.636719 34.683594 96.476562 34.976562 C 96.324219 35.265625 96.25 35.601562 96.25 35.984375 C 96.25 36.363281 96.324219 36.703125 96.476562 37.007812 C 96.636719 37.300781 96.851562 37.535156 97.121094 37.703125 C 97.394531 37.871094 97.707031 37.953125 98.066406 37.953125 Z M 102.929688 39.25 L 102.929688 32.722656 L 104.402344 32.722656 L 104.402344 34.175781 L 104.28125 33.957031 C 104.433594 33.46875 104.671875 33.128906 104.988281 32.9375 C 105.316406 32.746094 105.707031 32.648438 106.160156 32.648438 L 106.546875 32.648438 L 106.546875 34.042969 L 105.984375 34.042969 C 105.535156 34.042969 105.175781 34.183594 104.90625 34.460938 C 104.632812 34.734375 104.5 35.117188 104.5 35.613281 L 104.5 39.25 Z M 110.734375 39.394531 C 110.0625 39.394531 109.476562 39.242188 108.972656 38.9375 C 108.472656 38.632812 108.082031 38.222656 107.800781 37.703125 C 107.523438 37.183594 107.382812 36.605469 107.382812 35.972656 C 107.382812 35.316406 107.523438 34.738281 107.800781 34.234375 C 108.089844 33.722656 108.476562 33.316406 108.960938 33.023438 C 109.457031 32.726562 110.007812 32.578125 110.613281 32.578125 C 111.125 32.578125 111.570312 32.660156 111.953125 32.828125 C 112.34375 32.996094 112.675781 33.230469 112.949219 33.527344 C 113.21875 33.820312 113.425781 34.160156 113.570312 34.546875 C 113.714844 34.921875 113.785156 35.328125 113.785156 35.769531 C 113.785156 35.882812 113.777344 35.996094 113.761719 36.117188 C 113.753906 36.238281 113.734375 36.34375 113.703125 36.429688 L 108.675781 36.429688 L 108.675781 35.230469 L 112.816406 35.230469 L 112.074219 35.792969 C 112.144531 35.425781 112.125 35.097656 112.015625 34.808594 C 111.910156 34.523438 111.734375 34.292969 111.488281 34.125 C 111.25 33.957031 110.957031 33.875 110.613281 33.875 C 110.285156 33.875 109.996094 33.957031 109.742188 34.125 C 109.484375 34.285156 109.289062 34.527344 109.152344 34.847656 C 109.027344 35.15625 108.976562 35.539062 109.011719 35.984375 C 108.976562 36.386719 109.03125 36.742188 109.164062 37.054688 C 109.308594 37.359375 109.515625 37.59375 109.789062 37.761719 C 110.066406 37.929688 110.386719 38.015625 110.746094 38.015625 C 111.105469 38.015625 111.40625 37.9375 111.65625 37.785156 C 111.910156 37.632812 112.109375 37.429688 112.253906 37.175781 L 113.523438 37.796875 C 113.394531 38.109375 113.195312 38.386719 112.921875 38.625 C 112.652344 38.867188 112.328125 39.054688 111.953125 39.191406 C 111.585938 39.324219 111.179688 39.394531 110.734375 39.394531 Z M 110.734375 39.394531 "/>
</g>
</svg>
